<?xml version="1.0" standalone="no"?>
<!DOCTYPE svg PUBLIC "-//W3C//DTD SVG 20010904//EN"
 "http://www.w3.org/TR/2001/REC-SVG-20010904/DTD/svg10.dtd">
<svg version="1.0" xmlns="http://www.w3.org/2000/svg"
 width="751.000000pt" height="751.000000pt" viewBox="0 0 751.000000 751.000000"
 preserveAspectRatio="xMidYMid meet">
<metadata>
Created by potrace 1.11, written by Peter Selinger 2001-2013
</metadata>
<g transform="translate(0.000000,751.000000) scale(0.100000,-0.100000)"
fill="#000000" stroke="none">
<path d="M3538 7506 c-1 -2 -46 -7 -98 -10 -90 -6 -127 -10 -195 -21 -16 -3
-50 -8 -75 -11 -25 -3 -88 -15 -140 -26 -52 -11 -104 -22 -115 -24 -26 -4
-150 -37 -243 -63 -69 -20 -273 -91 -317 -111 -11 -5 -45 -19 -75 -32 -161
-65 -409 -199 -590 -317 -75 -48 -317 -227 -346 -255 -6 -6 -37 -33 -69 -61
-126 -108 -318 -307 -424 -440 -31 -38 -59 -72 -62 -75 -10 -9 -91 -122 -154
-214 -197 -291 -366 -646 -467 -981 -36 -120 -84 -305 -95 -365 -2 -14 -10
-61 -18 -105 -38 -209 -50 -363 -50 -630 0 -303 6 -370 62 -710 12 -74 67
-291 104 -410 278 -896 899 -1670 1714 -2137 246 -141 677 -320 875 -363 8 -1
40 -10 70 -19 57 -16 167 -40 234 -50 21 -4 41 -8 45 -10 3 -2 29 -7 56 -10
112 -14 141 -18 164 -21 84 -13 215 -20 411 -20 261 0 402 10 600 41 52 9 109
18 125 21 17 2 93 20 170 39 77 20 147 37 155 39 8 2 65 20 125 39 175 58 338
124 508 209 255 126 468 262 689 439 113 91 225 193 323 293 132 136 147 154
308 355 25 31 134 187 171 245 21 33 47 72 57 87 11 15 19 29 19 32 0 2 18 36
40 75 237 418 408 946 455 1406 4 33 9 76 11 95 10 65 12 524 3 610 -4 47 -11
110 -14 140 -9 98 -20 167 -40 270 -3 14 -8 41 -11 60 -24 136 -109 424 -179
604 -295 761 -832 1407 -1525 1834 -383 236 -797 399 -1231 486 -68 14 -144
28 -169 31 -25 3 -52 8 -60 10 -8 2 -47 7 -87 10 -40 4 -85 9 -100 11 -33 5
-539 14 -545 10z"/>
</g>
</svg>
